<mxfile host="app.diagrams.net" agent="Mozilla/5.0 (X11; Linux x86_64; rv:136.0) Gecko/20100101 Firefox/136.0" version="26.1.0">
  <diagram name="Page-1" id="lyYBpC6qmYRWd_67Goto">
    <mxGraphModel dx="880" dy="447" grid="1" gridSize="10" guides="1" tooltips="1" connect="1" arrows="1" fold="1" page="1" pageScale="1" pageWidth="1169" pageHeight="827" math="0" shadow="0">
      <root>
        <mxCell id="0" />
        <mxCell id="1" parent="0" />
        <mxCell id="ChD8ZokVo8B8HBM6mBrE-6" value="" style="endArrow=none;html=1;rounded=0;" parent="1" edge="1">
          <mxGeometry width="50" height="50" relative="1" as="geometry">
            <mxPoint x="860" y="270" as="sourcePoint" />
            <mxPoint x="860" y="270" as="targetPoint" />
            <Array as="points">
              <mxPoint x="930" y="300" />
              <mxPoint x="930" y="390" />
              <mxPoint x="860" y="430" />
              <mxPoint x="860" y="360" />
              <mxPoint x="880" y="350" />
              <mxPoint x="860" y="340" />
            </Array>
          </mxGeometry>
        </mxCell>
        <mxCell id="ChD8ZokVo8B8HBM6mBrE-7" value="Carry" style="rounded=0;whiteSpace=wrap;html=1;" parent="1" vertex="1">
          <mxGeometry x="980" y="210" width="120" height="20" as="geometry" />
        </mxCell>
        <mxCell id="ChD8ZokVo8B8HBM6mBrE-8" value="Zero" style="rounded=0;whiteSpace=wrap;html=1;" parent="1" vertex="1">
          <mxGeometry x="980" y="230" width="120" height="20" as="geometry" />
        </mxCell>
        <mxCell id="ChD8ZokVo8B8HBM6mBrE-9" value="Negative" style="rounded=0;whiteSpace=wrap;html=1;" parent="1" vertex="1">
          <mxGeometry x="980" y="250" width="120" height="20" as="geometry" />
        </mxCell>
        <mxCell id="ChD8ZokVo8B8HBM6mBrE-10" value="Status Register" style="text;html=1;align=center;verticalAlign=middle;whiteSpace=wrap;rounded=0;" parent="1" vertex="1">
          <mxGeometry x="990" y="180" width="100" height="30" as="geometry" />
        </mxCell>
        <mxCell id="ChD8ZokVo8B8HBM6mBrE-11" value="" style="endArrow=classic;html=1;rounded=0;entryX=0;entryY=0.5;entryDx=0;entryDy=0;" parent="1" target="ChD8ZokVo8B8HBM6mBrE-8" edge="1">
          <mxGeometry width="50" height="50" relative="1" as="geometry">
            <mxPoint x="900" y="290" as="sourcePoint" />
            <mxPoint x="950" y="290" as="targetPoint" />
            <Array as="points">
              <mxPoint x="900" y="240" />
            </Array>
          </mxGeometry>
        </mxCell>
        <mxCell id="ChD8ZokVo8B8HBM6mBrE-31" value="4" style="edgeLabel;html=1;align=center;verticalAlign=middle;resizable=0;points=[];" parent="ChD8ZokVo8B8HBM6mBrE-11" vertex="1" connectable="0">
          <mxGeometry x="-0.5188" relative="1" as="geometry">
            <mxPoint as="offset" />
          </mxGeometry>
        </mxCell>
        <mxCell id="ChD8ZokVo8B8HBM6mBrE-13" value="A" style="rounded=0;whiteSpace=wrap;html=1;" parent="1" vertex="1">
          <mxGeometry x="690" y="390" width="120" height="20" as="geometry" />
        </mxCell>
        <mxCell id="ChD8ZokVo8B8HBM6mBrE-14" value="B" style="rounded=0;whiteSpace=wrap;html=1;" parent="1" vertex="1">
          <mxGeometry x="690" y="290" width="120" height="20" as="geometry" />
        </mxCell>
        <mxCell id="ChD8ZokVo8B8HBM6mBrE-15" value="" style="endArrow=classic;html=1;rounded=0;exitX=1;exitY=0.5;exitDx=0;exitDy=0;" parent="1" source="ChD8ZokVo8B8HBM6mBrE-14" edge="1">
          <mxGeometry width="50" height="50" relative="1" as="geometry">
            <mxPoint x="840" y="390" as="sourcePoint" />
            <mxPoint x="860" y="300" as="targetPoint" />
          </mxGeometry>
        </mxCell>
        <mxCell id="ChD8ZokVo8B8HBM6mBrE-30" value="8" style="edgeLabel;html=1;align=center;verticalAlign=middle;resizable=0;points=[];" parent="ChD8ZokVo8B8HBM6mBrE-15" vertex="1" connectable="0">
          <mxGeometry x="-0.0978" y="1" relative="1" as="geometry">
            <mxPoint as="offset" />
          </mxGeometry>
        </mxCell>
        <mxCell id="ChD8ZokVo8B8HBM6mBrE-16" value="" style="endArrow=classic;html=1;rounded=0;exitX=1;exitY=0.5;exitDx=0;exitDy=0;" parent="1" source="ChD8ZokVo8B8HBM6mBrE-13" edge="1">
          <mxGeometry width="50" height="50" relative="1" as="geometry">
            <mxPoint x="840" y="390" as="sourcePoint" />
            <mxPoint x="860" y="400" as="targetPoint" />
          </mxGeometry>
        </mxCell>
        <mxCell id="ChD8ZokVo8B8HBM6mBrE-29" value="8" style="edgeLabel;html=1;align=center;verticalAlign=middle;resizable=0;points=[];" parent="ChD8ZokVo8B8HBM6mBrE-16" vertex="1" connectable="0">
          <mxGeometry x="-0.1756" relative="1" as="geometry">
            <mxPoint as="offset" />
          </mxGeometry>
        </mxCell>
        <mxCell id="ChD8ZokVo8B8HBM6mBrE-18" value="ALU" style="text;html=1;align=center;verticalAlign=middle;whiteSpace=wrap;rounded=0;" parent="1" vertex="1">
          <mxGeometry x="870" y="330" width="60" height="30" as="geometry" />
        </mxCell>
        <mxCell id="ChD8ZokVo8B8HBM6mBrE-19" value="PC_H" style="rounded=0;whiteSpace=wrap;html=1;" parent="1" vertex="1">
          <mxGeometry x="350" y="190" width="120" height="20" as="geometry" />
        </mxCell>
        <mxCell id="ChD8ZokVo8B8HBM6mBrE-20" value="PC_L" style="rounded=0;whiteSpace=wrap;html=1;" parent="1" vertex="1">
          <mxGeometry x="350" y="210" width="120" height="20" as="geometry" />
        </mxCell>
        <mxCell id="ChD8ZokVo8B8HBM6mBrE-21" value="D" style="rounded=0;whiteSpace=wrap;html=1;" parent="1" vertex="1">
          <mxGeometry x="350" y="260" width="120" height="20" as="geometry" />
        </mxCell>
        <mxCell id="ChD8ZokVo8B8HBM6mBrE-22" value="C" style="rounded=0;whiteSpace=wrap;html=1;" parent="1" vertex="1">
          <mxGeometry x="350" y="280" width="120" height="20" as="geometry" />
        </mxCell>
        <mxCell id="ChD8ZokVo8B8HBM6mBrE-32" value="SP" style="rounded=0;whiteSpace=wrap;html=1;" parent="1" vertex="1">
          <mxGeometry x="350" y="340" width="120" height="20" as="geometry" />
        </mxCell>
        <mxCell id="ChD8ZokVo8B8HBM6mBrE-33" value="0x01" style="rounded=0;whiteSpace=wrap;html=1;" parent="1" vertex="1">
          <mxGeometry x="470" y="340" width="30" height="20" as="geometry" />
        </mxCell>
        <mxCell id="ChD8ZokVo8B8HBM6mBrE-37" value="" style="rounded=0;whiteSpace=wrap;html=1;" parent="1" vertex="1">
          <mxGeometry x="590" y="60" width="10" height="550" as="geometry" />
        </mxCell>
        <mxCell id="ChD8ZokVo8B8HBM6mBrE-38" value="" style="endArrow=classic;startArrow=classic;html=1;rounded=0;exitX=1;exitY=0.5;exitDx=0;exitDy=0;entryX=0;entryY=0.382;entryDx=0;entryDy=0;entryPerimeter=0;" parent="1" source="ChD8ZokVo8B8HBM6mBrE-21" target="ChD8ZokVo8B8HBM6mBrE-37" edge="1">
          <mxGeometry width="50" height="50" relative="1" as="geometry">
            <mxPoint x="420" y="470" as="sourcePoint" />
            <mxPoint x="470" y="420" as="targetPoint" />
          </mxGeometry>
        </mxCell>
        <mxCell id="ChD8ZokVo8B8HBM6mBrE-39" value="8" style="edgeLabel;html=1;align=center;verticalAlign=middle;resizable=0;points=[];" parent="ChD8ZokVo8B8HBM6mBrE-38" vertex="1" connectable="0">
          <mxGeometry x="0.0129" y="1" relative="1" as="geometry">
            <mxPoint as="offset" />
          </mxGeometry>
        </mxCell>
        <mxCell id="ChD8ZokVo8B8HBM6mBrE-40" value="" style="endArrow=classic;startArrow=classic;html=1;rounded=0;exitX=1;exitY=0.5;exitDx=0;exitDy=0;entryX=0;entryY=0.382;entryDx=0;entryDy=0;entryPerimeter=0;" parent="1" edge="1">
          <mxGeometry width="50" height="50" relative="1" as="geometry">
            <mxPoint x="470" y="290" as="sourcePoint" />
            <mxPoint x="590" y="290" as="targetPoint" />
          </mxGeometry>
        </mxCell>
        <mxCell id="ChD8ZokVo8B8HBM6mBrE-41" value="8" style="edgeLabel;html=1;align=center;verticalAlign=middle;resizable=0;points=[];" parent="ChD8ZokVo8B8HBM6mBrE-40" vertex="1" connectable="0">
          <mxGeometry x="0.0129" y="1" relative="1" as="geometry">
            <mxPoint as="offset" />
          </mxGeometry>
        </mxCell>
        <mxCell id="ChD8ZokVo8B8HBM6mBrE-42" value="" style="endArrow=classic;startArrow=classic;html=1;rounded=0;exitX=0.5;exitY=1;exitDx=0;exitDy=0;entryX=0;entryY=0.582;entryDx=0;entryDy=0;entryPerimeter=0;" parent="1" source="ChD8ZokVo8B8HBM6mBrE-32" target="ChD8ZokVo8B8HBM6mBrE-37" edge="1">
          <mxGeometry width="50" height="50" relative="1" as="geometry">
            <mxPoint x="425" y="450" as="sourcePoint" />
            <mxPoint x="440" y="430" as="targetPoint" />
            <Array as="points">
              <mxPoint x="410" y="380" />
            </Array>
          </mxGeometry>
        </mxCell>
        <mxCell id="ChD8ZokVo8B8HBM6mBrE-43" value="8" style="edgeLabel;html=1;align=center;verticalAlign=middle;resizable=0;points=[];" parent="ChD8ZokVo8B8HBM6mBrE-42" vertex="1" connectable="0">
          <mxGeometry x="0.0129" y="1" relative="1" as="geometry">
            <mxPoint as="offset" />
          </mxGeometry>
        </mxCell>
        <mxCell id="ChD8ZokVo8B8HBM6mBrE-44" value="" style="endArrow=classic;startArrow=classic;html=1;rounded=0;entryX=0;entryY=0.5;entryDx=0;entryDy=0;exitX=1.133;exitY=0.436;exitDx=0;exitDy=0;exitPerimeter=0;" parent="1" source="ChD8ZokVo8B8HBM6mBrE-37" target="ChD8ZokVo8B8HBM6mBrE-14" edge="1">
          <mxGeometry width="50" height="50" relative="1" as="geometry">
            <mxPoint x="580" y="330" as="sourcePoint" />
            <mxPoint x="630" y="280" as="targetPoint" />
          </mxGeometry>
        </mxCell>
        <mxCell id="ChD8ZokVo8B8HBM6mBrE-46" value="8" style="edgeLabel;html=1;align=center;verticalAlign=middle;resizable=0;points=[];" parent="ChD8ZokVo8B8HBM6mBrE-44" vertex="1" connectable="0">
          <mxGeometry x="-0.01" relative="1" as="geometry">
            <mxPoint as="offset" />
          </mxGeometry>
        </mxCell>
        <mxCell id="ChD8ZokVo8B8HBM6mBrE-45" value="" style="endArrow=classic;startArrow=classic;html=1;rounded=0;entryX=0;entryY=0.5;entryDx=0;entryDy=0;exitX=1.189;exitY=0.616;exitDx=0;exitDy=0;exitPerimeter=0;" parent="1" source="ChD8ZokVo8B8HBM6mBrE-37" target="ChD8ZokVo8B8HBM6mBrE-13" edge="1">
          <mxGeometry width="50" height="50" relative="1" as="geometry">
            <mxPoint x="580" y="330" as="sourcePoint" />
            <mxPoint x="630" y="280" as="targetPoint" />
          </mxGeometry>
        </mxCell>
        <mxCell id="ChD8ZokVo8B8HBM6mBrE-47" value="8" style="edgeLabel;html=1;align=center;verticalAlign=middle;resizable=0;points=[];" parent="ChD8ZokVo8B8HBM6mBrE-45" vertex="1" connectable="0">
          <mxGeometry x="-0.0673" y="1" relative="1" as="geometry">
            <mxPoint as="offset" />
          </mxGeometry>
        </mxCell>
        <mxCell id="ChD8ZokVo8B8HBM6mBrE-48" value="" style="endArrow=classic;html=1;rounded=0;exitX=1;exitY=0.5;exitDx=0;exitDy=0;entryX=1;entryY=0.75;entryDx=0;entryDy=0;" parent="1" source="ChD8ZokVo8B8HBM6mBrE-18" target="ChD8ZokVo8B8HBM6mBrE-37" edge="1">
          <mxGeometry width="50" height="50" relative="1" as="geometry">
            <mxPoint x="720" y="370" as="sourcePoint" />
            <mxPoint x="770" y="320" as="targetPoint" />
            <Array as="points">
              <mxPoint x="970" y="345" />
              <mxPoint x="970" y="470" />
            </Array>
          </mxGeometry>
        </mxCell>
        <mxCell id="ChD8ZokVo8B8HBM6mBrE-49" value="8" style="edgeLabel;html=1;align=center;verticalAlign=middle;resizable=0;points=[];" parent="ChD8ZokVo8B8HBM6mBrE-48" vertex="1" connectable="0">
          <mxGeometry x="0.3055" relative="1" as="geometry">
            <mxPoint as="offset" />
          </mxGeometry>
        </mxCell>
        <mxCell id="ChD8ZokVo8B8HBM6mBrE-50" value="8-bit Bus" style="text;html=1;align=center;verticalAlign=middle;whiteSpace=wrap;rounded=0;" parent="1" vertex="1">
          <mxGeometry x="565" y="30" width="60" height="30" as="geometry" />
        </mxCell>
        <mxCell id="M-BxrGj8xd9rl6QSy2er-1" value="MAR_H" style="rounded=0;whiteSpace=wrap;html=1;" parent="1" vertex="1">
          <mxGeometry y="374" width="120" height="20" as="geometry" />
        </mxCell>
        <mxCell id="M-BxrGj8xd9rl6QSy2er-2" value="MAR_L" style="rounded=0;whiteSpace=wrap;html=1;" parent="1" vertex="1">
          <mxGeometry y="394" width="120" height="20" as="geometry" />
        </mxCell>
        <mxCell id="M-BxrGj8xd9rl6QSy2er-3" value="" style="rounded=0;whiteSpace=wrap;html=1;" parent="1" vertex="1">
          <mxGeometry x="220" y="170" width="20" height="305" as="geometry" />
        </mxCell>
        <mxCell id="M-BxrGj8xd9rl6QSy2er-4" value="16-bit Mem Bus" style="text;html=1;align=center;verticalAlign=middle;whiteSpace=wrap;rounded=0;" parent="1" vertex="1">
          <mxGeometry x="200" y="130" width="60" height="30" as="geometry" />
        </mxCell>
        <mxCell id="M-BxrGj8xd9rl6QSy2er-5" value="16" style="endArrow=classic;startArrow=classic;html=1;rounded=0;entryX=0;entryY=0.382;entryDx=0;entryDy=0;entryPerimeter=0;exitX=1.05;exitY=0.131;exitDx=0;exitDy=0;exitPerimeter=0;" parent="1" source="M-BxrGj8xd9rl6QSy2er-3" edge="1">
          <mxGeometry width="50" height="50" relative="1" as="geometry">
            <mxPoint x="250" y="210" as="sourcePoint" />
            <mxPoint x="350" y="210" as="targetPoint" />
          </mxGeometry>
        </mxCell>
        <mxCell id="M-BxrGj8xd9rl6QSy2er-7" value="16" style="endArrow=classic;startArrow=classic;html=1;rounded=0;entryX=0;entryY=0.382;entryDx=0;entryDy=0;entryPerimeter=0;exitX=1.05;exitY=0.131;exitDx=0;exitDy=0;exitPerimeter=0;" parent="1" edge="1">
          <mxGeometry width="50" height="50" relative="1" as="geometry">
            <mxPoint x="241" y="279.77" as="sourcePoint" />
            <mxPoint x="350" y="279.77" as="targetPoint" />
          </mxGeometry>
        </mxCell>
        <mxCell id="M-BxrGj8xd9rl6QSy2er-8" value="16" style="endArrow=classic;startArrow=classic;html=1;rounded=0;entryX=0;entryY=0.382;entryDx=0;entryDy=0;entryPerimeter=0;exitX=1.05;exitY=0.131;exitDx=0;exitDy=0;exitPerimeter=0;" parent="1" edge="1">
          <mxGeometry width="50" height="50" relative="1" as="geometry">
            <mxPoint x="241" y="349.88" as="sourcePoint" />
            <mxPoint x="350" y="349.88" as="targetPoint" />
          </mxGeometry>
        </mxCell>
        <mxCell id="M-BxrGj8xd9rl6QSy2er-9" value="16" style="endArrow=classic;startArrow=classic;html=1;rounded=0;exitX=1.05;exitY=0.131;exitDx=0;exitDy=0;exitPerimeter=0;" parent="1" edge="1">
          <mxGeometry width="50" height="50" relative="1" as="geometry">
            <mxPoint x="120" y="394" as="sourcePoint" />
            <mxPoint x="220" y="394" as="targetPoint" />
          </mxGeometry>
        </mxCell>
        <mxCell id="M-BxrGj8xd9rl6QSy2er-10" value="A=B" style="rounded=0;whiteSpace=wrap;html=1;" parent="1" vertex="1">
          <mxGeometry x="980" y="270" width="120" height="20" as="geometry" />
        </mxCell>
        <mxCell id="ENe2yaKrqC7_JRlrpxl8-2" value="" style="endArrow=classic;startArrow=classic;html=1;rounded=0;exitX=1;exitY=0.5;exitDx=0;exitDy=0;entryX=0;entryY=0.382;entryDx=0;entryDy=0;entryPerimeter=0;" edge="1" parent="1">
          <mxGeometry width="50" height="50" relative="1" as="geometry">
            <mxPoint x="470" y="200" as="sourcePoint" />
            <mxPoint x="590" y="200" as="targetPoint" />
          </mxGeometry>
        </mxCell>
        <mxCell id="ENe2yaKrqC7_JRlrpxl8-3" value="8" style="edgeLabel;html=1;align=center;verticalAlign=middle;resizable=0;points=[];" vertex="1" connectable="0" parent="ENe2yaKrqC7_JRlrpxl8-2">
          <mxGeometry x="0.0129" y="1" relative="1" as="geometry">
            <mxPoint as="offset" />
          </mxGeometry>
        </mxCell>
        <mxCell id="ENe2yaKrqC7_JRlrpxl8-4" value="" style="endArrow=classic;startArrow=classic;html=1;rounded=0;exitX=1;exitY=0.5;exitDx=0;exitDy=0;entryX=0;entryY=0.382;entryDx=0;entryDy=0;entryPerimeter=0;" edge="1" parent="1">
          <mxGeometry width="50" height="50" relative="1" as="geometry">
            <mxPoint x="470" y="220" as="sourcePoint" />
            <mxPoint x="590" y="220" as="targetPoint" />
          </mxGeometry>
        </mxCell>
        <mxCell id="ENe2yaKrqC7_JRlrpxl8-5" value="8" style="edgeLabel;html=1;align=center;verticalAlign=middle;resizable=0;points=[];" vertex="1" connectable="0" parent="ENe2yaKrqC7_JRlrpxl8-4">
          <mxGeometry x="0.0129" y="1" relative="1" as="geometry">
            <mxPoint as="offset" />
          </mxGeometry>
        </mxCell>
      </root>
    </mxGraphModel>
  </diagram>
</mxfile>
